<?xml version="1.0" encoding="UTF-8" standalone="no"?>
<!DOCTYPE svg PUBLIC "-//W3C//DTD SVG 1.1//EN" "http://www.w3.org/Graphics/SVG/1.1/DTD/svg11.dtd">
<svg width="100%" height="100%" viewBox="0 0 180 180" version="1.1" xmlns="http://www.w3.org/2000/svg" xmlns:xlink="http://www.w3.org/1999/xlink" xml:space="preserve" xmlns:serif="http://www.serif.com/" style="fill-rule:evenodd;clip-rule:evenodd;stroke-linejoin:round;stroke-miterlimit:2;">
    <circle cx="90" cy="90" r="90" style="fill:rgb(12,10,9);"/>
    <path d="M90,0C139.672,0 180,40.328 180,90C180,139.672 139.672,180 90,180C40.328,180 0,139.672 0,90C0,40.328 40.328,0 90,0ZM90,5C43.087,5 5,43.087 5,90C5,136.913 43.087,175 90,175C136.913,175 175,136.913 175,90C175,43.087 136.913,5 90,5Z" style="fill:rgb(234,179,8);"/>
    <g transform="matrix(0.844563,0,0,0.844563,16.9337,14.5197)">
        <g transform="matrix(1,0,0,1,15.6271,-0.62795)">
            <rect x="57.875" y="8.697" width="9.798" height="162.606" style="fill:rgb(109,40,217);"/>
        </g>
        <g transform="matrix(0.612767,-0.265966,0.493226,0.642242,-8.92134,57.4937)">
            <path d="M134.96,70.38L69.593,70.38L69.593,79.309L124.14,79.309C126.741,79.309 129.497,78.289 131.611,76.546C133.725,74.802 134.96,72.529 134.96,70.383C134.96,70.381 134.96,70.38 134.96,70.38Z" style="fill:rgb(248,250,252);"/>
        </g>
        <g transform="matrix(0.612767,0.265966,0.493226,-0.642242,-8.92134,118.998)">
            <path d="M134.96,70.38L69.593,70.38L69.593,79.309L124.14,79.309C126.741,79.309 129.497,78.289 131.611,76.546C133.725,74.802 134.96,72.529 134.96,70.383C134.96,70.381 134.96,70.38 134.96,70.38Z" style="fill:rgb(248,250,252);"/>
        </g>
        <g transform="matrix(0.993224,0,0,0.989552,21.1669,2.05715)">
            <path d="M52.693,6.076L52.691,6.076C47.057,6.076 42.489,10.66 42.489,16.316C42.489,45.802 42.489,130.672 42.489,160.158C42.489,165.813 47.057,170.398 52.691,170.398C52.692,170.398 52.693,170.398 52.693,170.398L52.693,6.076Z" style="fill:rgb(236,72,153);"/>
        </g>
        <g transform="matrix(5.86866,0,0,5.86866,-355.295,-148.232)">
            <path d="M73.9,35.305L73.9,26.633L76.166,26.633C77.154,26.633 77.852,26.822 78.261,27.199C78.67,27.576 78.875,28.024 78.875,28.543C78.875,28.965 78.738,29.384 78.463,29.8C78.189,30.216 77.73,30.545 77.086,30.787C77.648,30.959 78.07,31.156 78.351,31.376C78.632,31.597 78.848,31.863 79,32.173C79.151,32.484 79.227,32.805 79.227,33.137C79.227,33.539 79.122,33.914 78.914,34.262C78.705,34.61 78.429,34.87 78.087,35.044C77.744,35.218 77.207,35.305 76.475,35.305L73.9,35.305ZM75.119,34.385L75.374,34.385C76.253,34.385 76.824,34.337 77.089,34.242C77.354,34.146 77.559,33.988 77.703,33.767C77.848,33.546 77.92,33.297 77.92,33.02C77.92,32.52 77.688,32.095 77.224,31.745C76.76,31.396 76.175,31.221 75.47,31.221L75.119,31.221L75.119,34.385ZM75.119,30.442L75.517,30.442C76.242,30.442 76.773,30.288 77.11,29.982C77.447,29.675 77.615,29.287 77.615,28.819C77.615,28.409 77.466,28.095 77.167,27.878C76.867,27.661 76.347,27.553 75.606,27.553L75.119,27.553L75.119,30.442Z" style="fill:rgb(248,250,252);fill-rule:nonzero;"/>
        </g>
        <g transform="matrix(5.8946,0,0,5.86866,-354.103,-37.8025)">
            <path d="M73.373,35.522L73.373,33.922C74.072,34.242 74.583,34.436 74.905,34.502C75.228,34.569 75.526,34.602 75.801,34.602C76.3,34.602 76.694,34.466 76.983,34.195C77.272,33.923 77.416,33.598 77.416,33.219C77.416,32.934 77.341,32.67 77.19,32.428C77.035,32.19 76.653,31.899 76.045,31.555L75.444,31.209C74.644,30.756 74.107,30.342 73.832,29.967C73.557,29.592 73.42,29.176 73.42,28.719C73.42,28.309 73.529,27.924 73.747,27.565C73.965,27.205 74.257,26.924 74.624,26.721C74.991,26.518 75.453,26.416 76.011,26.416C76.682,26.416 77.391,26.528 78.137,26.75L78.137,27.876C77.488,27.622 77.043,27.468 76.801,27.415C76.559,27.363 76.318,27.336 76.078,27.336C75.575,27.336 75.202,27.467 74.96,27.729C74.719,27.991 74.598,28.258 74.598,28.532C74.598,28.719 74.655,28.909 74.769,29.103C74.884,29.296 75.038,29.462 75.231,29.601C75.424,29.74 75.69,29.905 76.027,30.096L76.651,30.448C77.459,30.905 77.999,31.323 78.27,31.701C78.54,32.084 78.676,32.524 78.676,33.02C78.676,33.696 78.418,34.282 77.902,34.778C77.386,35.274 76.625,35.55 75.621,35.522C75.361,35.514 75.099,35.528 73.373,35.522Z" style="fill:rgb(248,250,252);fill-rule:nonzero;"/>
        </g>
    </g>
</svg>
